<?xml version="1.0" standalone="no"?>
<!DOCTYPE svg PUBLIC "-//W3C//DTD SVG 20010904//EN"
 "http://www.w3.org/TR/2001/REC-SVG-20010904/DTD/svg10.dtd">
<svg version="1.0" xmlns="http://www.w3.org/2000/svg"
 width="720.000000pt" height="720.000000pt" viewBox="0 0 720.000000 720.000000"
 preserveAspectRatio="xMidYMid meet">
<metadata>
Created by potrace 1.16, written by Peter Selinger 2001-2019
</metadata>
<g transform="translate(0.000000,720.000000) scale(0.100000,-0.100000)"
fill="#000000" stroke="none">
<path d="M473 5704 c-54 -27 -65 -52 -103 -235 -32 -157 -19 -357 26 -416 52
-69 51 -68 332 -66 139 1 256 4 260 7 4 2 35 -2 69 -10 107 -24 353 -47 524
-48 l77 -1 -29 -35 c-31 -36 -99 -137 -99 -145 0 -3 -14 -34 -30 -68 -16 -35
-30 -69 -30 -76 0 -6 -4 -19 -9 -29 -5 -9 -19 -61 -32 -115 -16 -72 -20 -114
-16 -165 l6 -68 -102 -14 c-56 -7 -136 -14 -177 -16 -41 -1 -120 -5 -175 -9
-55 -4 -131 -8 -170 -10 -38 -1 -169 -9 -290 -19 -121 -9 -236 -14 -255 -11
-52 9 -167 -19 -197 -46 -54 -50 -64 -112 -37 -227 8 -37 25 -105 35 -152 52
-219 63 -250 156 -435 47 -92 77 -141 112 -185 11 -14 21 -29 21 -34 0 -10 97
-142 136 -186 12 -14 54 -61 92 -105 107 -121 180 -193 273 -267 46 -37 113
-92 149 -121 102 -83 205 -157 217 -157 3 0 27 -18 53 -40 26 -22 51 -40 55
-40 5 0 22 -10 39 -23 17 -12 42 -28 56 -35 14 -6 32 -16 40 -21 8 -5 26 -14
40 -20 14 -6 32 -15 40 -20 8 -6 47 -24 85 -41 39 -17 77 -35 85 -40 35 -22
118 -60 131 -60 8 0 23 -7 33 -15 10 -8 42 -22 70 -31 28 -9 74 -26 101 -39
60 -29 235 -91 325 -116 36 -9 83 -24 105 -31 22 -8 67 -20 100 -27 33 -8 74
-19 90 -27 17 -7 64 -17 105 -23 41 -6 107 -15 145 -21 39 -6 88 -11 110 -11
22 0 73 -7 115 -15 41 -8 89 -14 106 -14 17 0 46 -8 65 -17 36 -19 83 -20 364
-9 163 6 418 38 490 61 28 8 88 20 135 25 47 6 114 19 150 29 36 11 91 24 124
30 32 6 64 15 70 20 6 4 29 12 51 16 22 4 65 17 95 30 30 12 87 30 125 40 39
10 88 26 109 37 22 10 46 18 53 18 7 0 21 4 31 9 9 5 60 26 112 46 52 20 118
50 145 65 28 16 102 55 165 86 63 32 128 68 143 81 16 13 35 23 42 23 8 0 54
27 102 60 48 33 91 60 95 60 4 0 30 16 56 34 26 19 59 39 73 45 58 22 282 205
429 351 169 168 305 317 336 366 10 17 33 51 49 74 113 161 153 227 198 320
47 99 81 197 92 265 4 22 11 45 17 52 5 7 13 36 18 65 4 29 14 90 21 136 16
100 4 161 -41 207 l-30 29 -197 12 c-109 7 -216 16 -238 22 -22 6 -110 13
-195 17 -85 3 -191 10 -235 15 -44 5 -125 9 -179 10 -55 0 -102 3 -106 5 -17
10 -507 7 -534 -4 -15 -6 -60 -39 -99 -74 -39 -34 -78 -66 -85 -72 -22 -16
-73 -66 -114 -112 l-37 -41 -68 19 c-37 11 -76 24 -85 29 -10 6 -36 10 -58 10
-33 0 -48 7 -84 40 -24 22 -46 40 -50 40 -10 0 -162 108 -176 125 -7 8 -17 15
-23 15 -5 0 -33 17 -61 38 -50 38 -140 94 -194 120 -15 7 -33 16 -41 20 -7 4
-21 37 -30 73 -9 36 -25 78 -36 93 -11 16 -36 54 -55 86 -53 88 -89 140 -98
140 -4 0 -13 4 -21 9 -11 7 -7 18 22 53 20 24 40 55 46 70 7 18 19 27 44 32
38 7 80 46 97 91 7 17 12 56 12 87 0 75 -26 126 -77 154 -25 13 -56 44 -85 86
-53 79 -105 116 -168 124 -26 4 -65 12 -87 19 -27 9 -109 12 -255 12 -150 0
-228 4 -255 13 -30 10 -78 11 -200 5 -88 -4 -200 -9 -250 -11 -129 -5 -627 -4
-710 1 -38 3 -135 7 -215 9 -211 7 -378 14 -430 20 -25 3 -92 8 -150 11 -267
16 -336 22 -356 32 -25 14 -185 43 -239 43 -23 0 -45 4 -50 9 -15 14 -128 41
-171 41 -22 0 -53 -8 -71 -16z m127 -138 c8 -1 32 -8 53 -16 37 -14 45 -28 27
-46 -11 -11 -19 -73 -26 -219 -3 -60 -6 -118 -7 -128 -2 -22 -28 -29 -92 -25
-48 3 -49 4 -58 43 -12 58 -2 195 25 335 13 69 15 72 41 64 12 -4 29 -8 37 -8z
m228 -51 c15 -2 29 -4 32 -5 3 -1 10 -3 15 -4 51 -10 86 -20 90 -26 2 -4 -2
-34 -11 -66 -19 -70 -20 -130 -3 -150 6 -8 8 -18 4 -22 -4 -4 -10 -1 -12 6 -3
6 -9 9 -14 6 -6 -3 -6 -10 -1 -17 5 -7 12 -33 14 -59 l5 -46 -103 -1 -104 -1
-1 52 c-1 126 2 208 13 276 9 64 13 72 29 67 11 -4 31 -8 47 -10z m324 -70
c-2 -18 -1 -19 11 -3 15 19 97 20 97 1 0 -6 5 -15 12 -19 8 -5 9 -2 5 9 -8 20
17 23 60 6 25 -10 81 -14 108 -9 6 1 14 2 19 1 5 -1 63 -3 130 -5 67 -2 128
-6 136 -9 8 -4 26 -6 40 -6 69 0 239 -9 247 -14 4 -2 46 -8 92 -12 66 -6 85
-4 92 6 7 12 12 12 29 1 11 -7 26 -9 33 -5 18 11 88 12 116 2 14 -6 28 -6 35
0 6 6 27 9 46 9 19 0 58 0 85 1 62 2 114 -3 138 -13 12 -6 17 -4 17 8 0 16 20
17 70 1 11 -4 20 -2 20 4 0 16 43 9 57 -9 8 -10 15 -11 20 -5 5 6 19 11 33 12
121 8 156 11 160 13 12 7 200 4 200 -3 0 -4 7 -24 16 -45 10 -20 16 -45 15
-54 -1 -10 2 -25 7 -35 7 -11 6 -23 -1 -35 -9 -14 -9 -23 1 -38 15 -25 15 -55
0 -83 -7 -13 -11 -49 -9 -85 l3 -63 -89 2 c-88 2 -88 2 -139 46 -29 23 -85 59
-125 79 -41 21 -87 47 -104 59 -28 20 -178 65 -270 81 -83 14 -219 18 -342 9
-26 -1 -43 2 -43 9 0 6 -7 1 -15 -11 -8 -12 -30 -25 -48 -28 -17 -4 -37 -11
-43 -16 -6 -5 -31 -11 -55 -14 -24 -3 -45 -10 -47 -15 -2 -6 -16 -10 -30 -10
-19 0 -23 -3 -13 -9 11 -7 8 -11 -10 -17 -13 -4 -30 -7 -36 -6 -7 2 -13 -4
-13 -13 0 -8 -4 -15 -10 -15 -5 0 -10 7 -10 16 0 24 -35 12 -38 -13 -3 -22 -5
-22 -180 -21 -97 1 -207 4 -244 6 -65 4 -68 5 -62 27 4 17 0 26 -15 35 -25 13
-27 3 -5 -22 16 -16 16 -18 0 -24 -9 -3 -27 1 -41 10 -23 15 -27 15 -48 1 -13
-8 -26 -13 -28 -10 -3 3 -23 7 -45 10 -88 12 -79 -5 -78 153 2 159 7 189 32
195 35 10 57 3 54 -18z m2319 -47 c26 2 39 -2 43 -13 3 -9 11 -13 17 -9 9 5
10 -3 5 -29 -5 -26 -2 -44 9 -60 17 -26 14 -101 -8 -202 -2 -11 -1 -24 3 -30
4 -5 10 -29 12 -53 l4 -42 -79 1 -79 1 7 27 c4 14 6 89 5 166 -2 77 -3 155 -3
173 0 17 -4 32 -9 32 -4 0 -8 12 -8 26 0 22 3 24 23 18 12 -5 38 -7 58 -6z
m292 -16 c26 -29 31 -69 10 -81 -16 -9 -16 -10 -1 -11 32 0 44 -86 24 -182
-11 -54 -13 -84 -6 -108 5 -19 8 -35 6 -37 -2 -2 -35 -6 -75 -8 l-71 -5 4 85
c3 47 1 129 -4 183 -5 53 -11 116 -14 139 l-3 42 57 0 c42 -1 63 -5 73 -17z
m171 -38 c14 -15 26 -34 26 -44 0 -20 44 -89 68 -107 9 -7 26 -13 39 -13 23 0
29 -14 17 -44 -3 -9 -13 -16 -20 -16 -27 0 -114 -82 -114 -108 -1 -24 -22 -50
-45 -54 -16 -2 -20 2 -18 22 6 60 6 134 -1 258 -7 146 -2 156 48 106z m-1549
-245 c6 -8 10 -7 16 2 6 10 9 11 9 2 0 -7 9 -13 20 -13 11 0 20 4 20 10 0 10
35 8 46 -3 4 -3 15 -2 24 3 13 7 21 5 30 -5 10 -12 16 -13 26 -4 11 9 14 8 14
-1 0 -7 6 -10 14 -7 8 3 20 -1 27 -9 10 -12 14 -12 20 -2 7 10 9 10 9 1 0 -7
12 -13 28 -13 20 0 23 -3 13 -9 -12 -8 -9 -11 12 -16 15 -4 28 -15 28 -24 1
-14 2 -13 6 2 6 24 23 21 23 -4 0 -18 5 -21 29 -17 22 3 33 -2 46 -19 10 -13
25 -23 35 -23 9 0 25 -9 34 -19 10 -11 28 -22 42 -25 15 -4 24 -14 24 -26 0
-11 7 -20 15 -20 8 0 14 -5 13 -12 -2 -6 7 -17 19 -23 28 -14 53 -47 78 -102
11 -24 26 -43 34 -43 8 0 11 -3 8 -7 -4 -3 5 -22 20 -41 15 -20 21 -32 15 -28
-6 4 -3 -10 7 -31 34 -71 51 -114 51 -131 0 -10 4 -22 9 -28 5 -5 12 -51 16
-102 6 -82 5 -92 -9 -86 -11 4 -16 1 -16 -11 0 -9 5 -13 10 -10 6 4 10 -8 10
-29 0 -19 -4 -37 -8 -40 -5 -3 -8 -31 -7 -63 1 -39 -5 -68 -16 -87 -10 -16
-15 -34 -13 -41 3 -7 1 -16 -5 -20 -6 -3 -11 -15 -11 -26 0 -11 -7 -27 -15
-35 -8 -8 -19 -33 -25 -56 -7 -25 -18 -42 -31 -45 -10 -3 -16 -9 -14 -13 7
-11 -67 -120 -81 -120 -7 0 -14 -8 -16 -18 -3 -10 -15 -18 -28 -19 -26 -2 -57
-28 -65 -54 -6 -18 -58 -52 -80 -53 -5 -1 -20 -11 -32 -23 -28 -28 -43 -29
-50 -3 -3 11 -10 20 -15 20 -5 0 -6 -5 -3 -10 4 -6 2 -16 -3 -23 -6 -7 -12
-16 -14 -22 -1 -5 -7 -9 -12 -7 -5 2 -26 -4 -48 -13 -55 -22 -58 -20 -58 30 0
53 18 75 81 99 48 19 81 56 82 90 0 21 -42 97 -69 123 -6 7 -22 29 -35 50 -12
21 -36 61 -53 88 -18 28 -38 63 -46 79 -8 16 -28 43 -44 60 l-28 30 -25 -29
c-25 -29 -25 -29 -19 -174 16 -347 22 -390 54 -372 16 9 52 3 52 -9 0 -4 8 -7
18 -6 13 1 18 -8 20 -36 3 -35 1 -38 -25 -39 -45 -3 -57 -5 -75 -13 -9 -4 -38
-6 -65 -4 -43 4 -48 6 -45 27 1 15 -2 21 -10 18 -7 -2 -12 -12 -10 -22 3 -16
-2 -17 -60 -12 -72 8 -208 53 -277 93 -81 48 -185 129 -226 179 -22 26 -45 53
-50 59 -31 34 -108 176 -131 241 -8 22 -17 66 -20 97 -4 32 -10 55 -14 53 -30
-18 -43 280 -16 351 8 21 19 62 25 89 15 76 95 213 176 301 l72 79 32 -34 c36
-39 38 -47 11 -56 -11 -3 -27 -13 -35 -22 -9 -8 -27 -16 -41 -17 -22 -1 -25
-5 -21 -26 3 -14 1 -47 -3 -75 -14 -89 -11 -93 121 -160 66 -32 119 -63 119
-67 0 -4 7 -8 15 -8 9 0 27 -11 41 -25 14 -14 29 -25 34 -25 5 0 34 -12 65
-27 l55 -27 22 21 c19 19 20 26 10 48 -12 26 -87 144 -162 255 -20 30 -47 74
-60 98 -13 23 -27 42 -32 42 -4 0 -17 9 -29 21 -11 11 -32 22 -47 23 -14 2
-36 16 -49 32 l-24 29 33 28 c18 15 38 27 45 27 7 0 13 5 13 10 0 6 7 10 15
10 8 0 15 5 15 11 0 5 4 8 9 5 5 -3 14 1 21 9 8 9 21 13 36 9 15 -4 24 -2 24
6 0 8 9 10 25 6 27 -7 80 16 101 43 13 17 34 7 34 -17 1 -14 2 -14 12 3 6 11
15 23 20 26 17 11 106 10 113 -2z m422 -85 c-3 -3 -12 -4 -19 -1 -8 3 -5 6 6
6 11 1 17 -2 13 -5z m1070 -271 c16 -21 36 -50 45 -64 9 -14 35 -44 57 -67 38
-38 39 -41 18 -45 -20 -4 -20 -4 3 -6 25 -1 62 -39 89 -90 26 -47 -6 -40 -79
19 -41 33 -80 60 -86 60 -17 0 -103 49 -145 82 -20 15 -41 28 -45 28 -5 0 -29
13 -53 29 -41 27 -42 30 -23 40 27 15 32 14 32 -4 0 -8 4 -15 10 -15 5 0 9 9
7 19 -1 14 16 32 63 64 l65 44 6 -28 c3 -15 19 -45 36 -66z m-412 -61 c28 -17
57 -38 66 -47 9 -8 24 -15 35 -15 10 -1 37 -14 59 -30 22 -16 50 -35 63 -41
12 -7 22 -16 22 -21 0 -4 8 -8 18 -8 26 -1 87 -34 87 -47 0 -6 3 -15 8 -19 4
-4 7 1 7 11 0 15 3 16 12 7 10 -10 9 -22 -4 -60 -13 -36 -15 -57 -8 -89 9 -39
8 -43 -26 -77 -32 -32 -34 -39 -28 -73 7 -44 27 -63 64 -63 23 0 28 7 43 53
16 50 16 53 -3 79 -25 34 -27 63 -4 54 23 -9 54 22 54 52 0 30 -26 62 -51 62
-26 0 -29 12 -9 33 12 12 20 15 25 8 3 -6 14 -11 24 -11 9 0 46 -27 80 -60 46
-44 69 -59 82 -55 12 4 32 -4 54 -21 19 -14 35 -23 35 -20 0 4 10 -3 22 -14
12 -11 28 -18 35 -16 7 3 18 -3 26 -14 7 -10 42 -33 78 -51 35 -18 83 -47 106
-66 23 -18 46 -33 51 -33 5 0 27 -13 48 -28 21 -16 47 -31 57 -35 10 -4 17
-17 17 -32 0 -27 9 -32 27 -14 7 7 19 3 39 -14 16 -13 39 -29 52 -36 12 -6 22
-19 22 -27 0 -10 -5 -12 -12 -7 -22 13 -38 12 -38 -3 0 -9 5 -12 11 -8 6 3 15
0 20 -7 12 -19 11 -29 -3 -26 -13 2 -38 -39 -38 -63 0 -25 36 -63 61 -64 38
-2 73 46 65 89 -4 19 -14 39 -24 44 -25 14 -6 26 22 13 19 -8 26 -8 30 1 2 7
5 1 6 -13 0 -20 2 -22 10 -9 10 17 60 13 132 -13 l37 -12 -1 -101 -1 -100 -91
7 c-50 3 -124 11 -164 17 -41 6 -100 13 -133 16 -59 5 -179 55 -179 75 0 6 -7
10 -15 10 -8 0 -38 11 -67 24 -29 13 -64 27 -78 31 -21 6 -150 68 -215 102
-68 37 -401 181 -434 188 -16 3 -35 13 -42 21 -6 8 -19 14 -28 14 -35 0 -61
46 -61 108 0 48 -22 222 -33 272 -7 29 -58 126 -87 165 -16 22 -29 49 -30 59
0 19 1 19 23 -1 12 -11 45 -34 72 -51z m2500 -564 c28 -5 113 -11 190 -14 77
-3 143 -10 146 -16 4 -7 14 -6 28 1 12 7 25 9 30 6 5 -3 49 -5 98 -6 48 -1 93
-4 98 -7 6 -4 28 -8 50 -8 22 -1 59 -2 82 -3 55 -1 72 -27 48 -73 l-15 -32 24
23 c20 19 23 28 16 47 -10 27 1 32 19 10 12 -14 30 -14 73 0 14 4 18 2 14 -5
-10 -15 5 -13 27 3 25 20 60 9 80 -25 14 -25 14 -31 2 -35 -8 -3 -14 -18 -13
-32 0 -15 -3 -62 -7 -106 -5 -54 -4 -77 3 -72 6 3 10 29 8 56 -1 28 -1 50 1
50 1 0 10 -17 19 -37 11 -28 13 -43 5 -55 -14 -22 -14 -55 -1 -60 6 -2 6 -9 0
-18 -7 -12 -11 -8 -16 18 -4 17 -10 32 -14 32 -12 0 -18 -47 -7 -65 6 -11 5
-26 -2 -42 -6 -13 -9 -43 -6 -66 3 -23 2 -36 -1 -29 -3 6 -12 12 -20 12 -8 0
-14 8 -14 17 0 13 -3 14 -12 5 -9 -9 -8 -16 4 -29 22 -27 33 -47 20 -39 -6 4
-18 -6 -26 -23 -10 -18 -12 -31 -6 -33 6 -2 -4 -26 -22 -53 -24 -37 -33 -45
-36 -32 -2 10 2 25 9 33 6 8 9 17 5 21 -11 12 -19 -6 -24 -55 -2 -27 -13 -59
-23 -73 l-18 -24 4 50 5 50 -15 -50 c-8 -27 -13 -55 -11 -61 2 -5 -4 -21 -15
-35 -17 -22 -18 -22 -13 -3 3 12 1 25 -5 28 -6 4 -15 -17 -22 -54 -14 -75 -31
-61 -24 20 3 39 2 49 -5 33 -5 -12 -8 -42 -7 -66 2 -36 -1 -43 -11 -34 -11 8
-12 5 -7 -15 6 -23 -17 -88 -30 -88 -3 0 -3 26 1 58 4 40 2 52 -5 42 -5 -9
-11 -39 -14 -67 -2 -31 -12 -62 -25 -79 l-21 -29 6 38 c4 24 2 37 -6 37 -6 0
-11 -16 -11 -36 0 -36 -27 -94 -43 -94 -4 0 -5 6 -1 12 5 7 9 33 10 58 1 42 0
41 -17 -25 -9 -38 -18 -72 -19 -75 0 -3 -7 4 -15 14 -18 24 -23 20 -29 -28 -3
-28 -16 -50 -42 -77 -21 -21 -39 -37 -42 -35 -2 2 1 21 7 42 8 28 7 41 -1 49
-8 7 -9 7 -5 -1 4 -7 0 -29 -9 -49 -8 -21 -13 -44 -10 -52 3 -8 2 -12 -3 -9
-4 3 -13 -6 -20 -21 -17 -36 -22 -24 -10 21 7 26 7 42 0 49 -7 7 -8 3 -4 -12
3 -11 1 -21 -4 -21 -5 0 -10 -6 -11 -12 -8 -61 -19 -85 -33 -71 -6 6 -3 24 6
46 9 23 11 38 5 42 -6 3 -10 0 -10 -7 0 -7 -7 -26 -15 -41 -8 -15 -12 -34 -8
-42 3 -8 0 -15 -6 -15 -6 0 -8 -6 -5 -13 3 -8 -2 -20 -11 -27 -13 -11 -15 -8
-15 19 0 17 4 31 9 31 6 0 9 8 9 18 -1 9 2 33 6 52 5 26 4 31 -3 20 -6 -8 -11
-23 -11 -32 0 -10 -5 -18 -10 -18 -6 0 -10 -6 -8 -12 5 -29 -14 -107 -27 -112
-10 -3 -15 1 -16 12 0 12 -4 9 -11 -8 -6 -14 -11 -28 -10 -31 1 -4 -17 -21
-40 -39 -32 -26 -42 -30 -49 -19 -7 11 -10 9 -15 -8 -6 -22 -15 -27 -41 -24
-7 1 -13 -5 -13 -14 0 -13 -12 -20 -24 -12 -3 1 -16 -9 -30 -22 -17 -16 -26
-20 -26 -11 0 9 -6 7 -19 -6 -10 -10 -17 -22 -14 -26 2 -5 0 -8 -5 -8 -6 0 -8
17 -5 38 4 29 0 41 -16 56 -37 34 -21 68 38 81 20 4 35 15 38 26 3 10 12 19
19 19 8 0 14 4 14 8 0 5 19 22 43 40 23 17 59 45 80 61 21 17 44 29 50 27 7
-1 9 -1 5 1 -11 6 -10 23 1 23 5 0 41 32 80 72 39 39 71 66 71 60 0 -7 5 -12
10 -12 6 0 10 11 10 24 0 15 19 41 55 75 30 29 55 55 55 59 0 4 24 32 53 62
28 30 58 66 65 80 7 14 30 47 50 74 20 27 42 56 47 65 6 9 26 37 46 61 19 25
43 58 53 73 21 33 33 30 16 -5 -11 -22 -10 -22 4 -4 9 11 16 30 16 41 0 12 15
51 33 86 49 93 109 254 105 280 -2 17 -15 27 -53 39 -27 9 -56 15 -64 12 -11
-4 -13 1 -8 25 5 28 4 30 -23 30 -17 0 -39 8 -50 18 -16 15 -20 15 -20 3 0 -8
-9 -25 -20 -37 -16 -19 -26 -22 -57 -17 -21 3 -78 8 -127 11 -49 3 -96 10
-103 16 -9 9 -13 8 -13 0 0 -9 -13 -10 -42 -6 -44 5 -212 17 -282 19 -29 1
-41 6 -46 21 -7 20 -7 20 -13 0 -6 -19 -14 -20 -109 -17 -62 2 -115 10 -134
18 -27 13 -36 13 -75 0 -24 -8 -69 -16 -100 -17 -42 -2 -63 -8 -82 -25 -15
-13 -27 -28 -27 -34 0 -10 -27 -15 -64 -11 -14 1 -17 -4 -13 -20 5 -17 -27
-89 -39 -89 -2 0 -25 21 -50 47 l-45 48 28 24 c29 24 183 165 218 200 19 18
34 19 235 19 118 0 238 -5 265 -10z m-4525 -50 c1 -7 14 -40 30 -73 18 -39 25
-63 19 -70 -13 -13 -293 -20 -285 -7 3 6 -15 4 -42 -4 -26 -8 -72 -14 -102
-13 -30 1 -140 -4 -245 -11 -104 -7 -197 -12 -205 -12 -98 6 -143 6 -146 0 -3
-4 -21 -6 -42 -5 -20 2 -45 -1 -54 -5 -35 -17 -31 -93 11 -193 5 -11 19 -45
31 -75 32 -80 69 -150 101 -191 16 -20 29 -41 29 -46 0 -6 9 -18 20 -28 11
-10 17 -21 15 -26 -3 -4 4 -14 16 -22 15 -11 17 -16 7 -20 -9 -4 -10 -8 -2
-14 6 -4 28 -33 48 -63 21 -30 47 -66 60 -80 12 -14 32 -42 45 -63 12 -20 31
-43 40 -50 10 -6 24 -23 31 -36 7 -14 44 -55 81 -92 46 -45 72 -79 76 -99 4
-21 9 -28 16 -21 6 6 50 -25 129 -92 65 -56 126 -106 135 -112 9 -5 28 -21 44
-35 15 -14 36 -32 45 -39 13 -11 14 -16 4 -19 -7 -3 18 -15 54 -27 37 -13 80
-35 95 -49 15 -14 32 -26 38 -26 7 0 27 -13 45 -30 18 -16 38 -30 44 -30 7 0
26 -11 42 -25 17 -14 38 -25 48 -25 9 0 25 -6 33 -13 9 -8 32 -20 51 -27 19
-7 50 -24 68 -38 18 -13 42 -22 52 -19 12 3 22 -3 30 -19 7 -13 16 -22 19 -19
4 2 45 -15 91 -37 47 -22 94 -42 105 -44 55 -11 230 -83 233 -96 2 -10 16 -13
49 -12 84 3 166 -54 141 -99 -12 -22 -76 -23 -92 -2 -7 9 -35 17 -70 20 -52 5
-92 17 -146 44 -8 4 -42 16 -75 25 -72 21 -104 35 -127 55 -10 7 -30 15 -45
16 -26 3 -79 23 -113 45 -24 14 -82 40 -92 40 -10 0 -45 17 -161 78 -43 22
-95 46 -115 53 -37 12 -78 37 -120 73 -12 11 -28 21 -36 22 -13 2 -73 42 -176
118 -30 22 -77 56 -105 74 -27 19 -65 49 -83 68 -19 19 -50 45 -70 58 -61 39
-85 71 -80 105 2 16 1 28 -4 25 -4 -3 -8 -14 -8 -25 0 -30 -14 -23 -67 32 -26
29 -72 75 -100 102 -29 28 -53 55 -53 59 0 4 -8 16 -17 26 -52 54 -137 161
-170 214 -15 25 -41 65 -57 89 -80 119 -195 386 -208 479 -2 21 1 25 20 22 15
-1 22 2 20 10 -3 7 -15 14 -27 14 -12 1 -24 4 -27 7 -10 10 -37 150 -38 197
l-1 44 44 4 c24 2 47 0 50 -5 3 -5 19 -17 34 -26 28 -18 28 -18 18 2 -15 27
-14 30 9 24 12 -3 20 -14 21 -27 l0 -21 9 21 c12 32 90 50 138 33 14 -5 22 -5
22 2 0 6 5 7 11 4 14 -10 109 -13 109 -4 0 9 86 20 180 24 41 1 109 6 150 11
119 13 236 6 249 -15 6 -10 10 -9 14 3 4 9 15 16 25 16 10 0 22 4 28 9 9 10
56 16 137 19 32 1 47 -2 47 -10z m5615 -85 c-8 -55 -9 -56 -15 -25 -4 18 -6
42 -3 53 3 12 -1 21 -13 26 -16 6 -16 7 2 14 30 11 37 -5 29 -68z m-55 -34 c0
-11 -4 -17 -10 -14 -5 3 -10 13 -10 21 0 8 5 14 10 14 6 0 10 -9 10 -21z
m-331 -15 c-15 -18 -22 -13 -13 10 3 9 10 13 16 10 5 -3 4 -12 -3 -20z m51
-14 c0 -5 -4 -10 -9 -10 -6 0 -13 5 -16 10 -3 6 1 10 9 10 9 0 16 -4 16 -10z
m270 -30 c0 -13 -1 -13 -10 0 -5 8 -10 22 -10 30 0 13 1 13 10 0 5 -8 10 -22
10 -30z m47 -12 c-3 -8 -6 -5 -6 6 -1 11 2 17 5 13 3 -3 4 -12 1 -19z m-1876
-108 c10 -6 19 -20 19 -30 0 -11 5 -20 11 -20 6 0 8 9 4 23 -5 18 -4 19 4 5
19 -29 9 -69 -21 -84 -44 -23 -48 -18 -48 51 0 36 3 65 6 65 3 0 14 -5 25 -10z
m315 -71 c0 -8 3 -23 7 -34 3 -11 9 -65 12 -120 4 -55 10 -104 14 -108 4 -4
34 17 66 47 32 30 62 53 67 50 5 -3 5 -11 1 -17 -4 -7 -8 -18 -10 -26 -1 -7
-17 -26 -35 -41 -24 -20 -36 -25 -45 -18 -10 8 -13 5 -13 -11 0 -11 -11 -28
-25 -37 -35 -23 -55 -5 -55 50 0 72 -13 206 -19 206 -4 0 -26 -18 -49 -41 -40
-37 -62 -43 -62 -16 0 16 122 138 135 134 5 -2 10 -10 11 -18z m-3786 -134
c46 -29 60 -52 60 -95 0 -45 -32 -37 -41 10 -9 40 -43 72 -73 68 -28 -4 -26
-42 5 -125 l24 -62 -21 -28 c-39 -52 -116 -40 -167 25 -28 36 -37 95 -17 107
17 10 38 -13 38 -40 0 -37 28 -75 56 -75 63 0 70 26 31 104 -30 60 -31 85 -5
114 27 29 61 28 110 -3z m3370 -20 c0 -18 -14 -32 -40 -40 -14 -4 -31 -16 -38
-26 -7 -11 -18 -19 -23 -19 -6 0 -27 -13 -47 -29 -38 -31 -213 -121 -234 -121
-6 0 -19 -6 -27 -14 -21 -19 -91 -32 -91 -17 0 6 -7 11 -15 11 -18 0 -20 -20
-2 -21 6 0 1 -5 -13 -10 -14 -6 -33 -8 -42 -5 -10 2 -18 0 -18 -5 0 -5 6 -9
13 -9 23 -1 -107 -50 -132 -50 -15 0 -35 -6 -46 -14 -11 -7 -27 -13 -35 -14
-8 -1 -42 -8 -75 -17 -87 -22 -202 -30 -220 -15 -13 10 -15 9 -15 -9 0 -11 -5
-21 -11 -21 -5 0 -7 5 -4 10 3 6 1 10 -4 10 -6 0 -11 -6 -11 -14 0 -8 -14 -15
-36 -18 -27 -3 -38 0 -45 14 -5 10 -17 18 -25 18 -9 0 -12 -5 -8 -11 5 -8 -1
-10 -19 -7 -16 3 -24 1 -20 -5 3 -5 -3 -6 -16 -2 -13 4 -27 1 -35 -8 -29 -28
-125 -39 -316 -34 -102 3 -212 8 -245 11 -33 4 -76 9 -95 10 -51 5 -202 37
-222 47 -18 10 -25 59 -9 59 5 0 13 17 19 38 7 25 10 30 11 15 1 -27 16 -30
31 -5 11 16 11 16 6 0 -7 -24 14 -35 29 -14 12 15 13 15 18 -4 6 -25 27 -27
28 -2 0 9 6 1 12 -18 8 -27 11 -30 15 -16 7 30 25 43 55 40 15 -1 25 2 22 7
-12 19 25 8 45 -13 11 -12 20 -16 20 -10 0 7 11 12 25 12 14 0 25 -4 25 -9 0
-5 14 -8 30 -6 17 2 30 0 30 -5 0 -6 7 -10 16 -10 8 0 12 5 9 10 -8 13 1 13
26 0 14 -8 19 -7 19 2 0 8 3 9 11 1 7 -7 24 -8 47 -2 22 5 41 4 48 -2 8 -7 14
-6 19 1 4 7 12 7 26 0 10 -6 19 -7 19 -3 0 14 111 6 128 -10 15 -13 19 -13 31
0 9 10 27 14 52 11 25 -2 38 0 35 7 -2 7 24 11 72 13 42 1 93 7 115 13 22 6
50 8 63 5 12 -3 25 -2 29 4 3 5 12 7 20 3 9 -3 15 1 15 11 0 20 7 20 26 1 23
-22 48 -18 85 14 18 16 37 27 42 24 5 -3 24 3 43 13 30 17 36 17 44 4 8 -13
10 -13 10 1 0 17 35 37 88 49 20 5 32 4 32 -2 0 -6 6 -8 14 -5 7 3 19 0 25 -6
9 -9 11 -8 6 6 -4 9 -4 25 0 35 6 16 8 16 22 -3 12 -15 14 -16 10 -3 -4 12 2
19 24 27 16 5 29 8 29 6 0 -1 61 28 136 66 108 55 140 67 151 57 10 -8 17 -8
25 0 7 7 30 13 53 13 22 1 54 5 70 9 41 9 65 8 65 -5z m180 -53 c0 -26 -11
-34 -27 -21 -10 9 -10 15 -2 25 16 19 29 17 29 -4z m65 -92 c6 -18 18 -36 26
-39 32 -13 56 -37 63 -63 3 -16 2 -28 -3 -28 -13 0 -141 128 -141 142 0 6 9 8
20 5 19 -5 28 7 13 16 -5 2 -4 3 1 2 5 -1 15 -16 21 -35z m-3415 -5 c7 -14 17
-25 22 -25 16 0 69 -64 64 -77 -3 -7 -1 -15 4 -18 6 -4 10 1 10 9 0 9 5 16 11
16 6 0 9 -7 7 -16 -3 -16 -130 -65 -204 -78 -59 -12 -57 -44 5 -90 26 -19 37
-34 33 -44 -4 -12 -1 -14 13 -9 15 6 16 5 5 -8 -15 -18 -4 -24 -112 70 -38 32
-68 61 -68 64 0 13 18 32 31 35 8 1 34 9 59 18 25 9 71 23 103 32 31 10 57 23
57 30 0 7 -18 29 -40 50 -40 37 -46 47 -33 59 11 12 19 8 33 -18z m3235 -25
c-3 -5 3 -13 13 -19 10 -5 27 -29 37 -53 11 -24 27 -49 37 -56 23 -17 43 -81
29 -95 -7 -7 -9 -4 -6 11 2 12 0 24 -6 27 -5 4 -9 -4 -9 -16 0 -21 -2 -20 -25
11 -13 18 -26 38 -28 44 -3 7 -25 0 -61 -17 -35 -18 -54 -33 -49 -40 3 -7 20
-31 36 -54 27 -39 31 -73 8 -73 -5 0 -48 50 -96 111 -66 84 -84 114 -73 120 7
5 14 4 16 -1 2 -5 9 -7 16 -4 6 2 22 -9 34 -26 13 -16 27 -30 32 -30 19 0 100
55 100 68 0 7 -9 31 -21 53 -11 23 -18 44 -15 47 3 3 6 0 6 -7 0 -7 5 -9 10
-6 6 4 7 11 4 17 -4 7 -2 8 5 4 6 -4 9 -11 6 -16z m963 -69 c15 -10 45 -21 66
-25 41 -8 83 -30 104 -55 18 -23 15 -32 -11 -26 -18 5 -33 -3 -65 -36 -42 -41
-52 -75 -31 -96 14 -14 4 -46 -12 -41 -5 2 -39 62 -73 133 -58 119 -62 132
-48 148 19 22 37 22 70 -2z m-4944 -27 c4 -10 1 -14 -6 -12 -15 5 -23 28 -10
28 5 0 13 -7 16 -16z m1536 7 c0 -10 32 -23 63 -26 9 -1 17 3 17 9 0 6 4 5 9
-3 7 -10 4 -19 -7 -27 -15 -12 -14 -13 8 -9 33 6 54 -25 44 -68 l-6 -30 -19
24 c-15 20 -19 21 -19 7 0 -10 -4 -18 -10 -18 -5 0 -10 4 -10 9 0 4 -10 6 -22
4 -26 -5 -181 46 -231 74 -18 11 -31 23 -29 29 4 12 55 5 65 -10 5 -8 9 -8 15
2 5 7 20 14 33 16 13 1 31 5 39 8 47 19 60 21 60 9z m156 -68 c-10 -10 -19 5
-10 18 6 11 8 11 12 0 2 -7 1 -15 -2 -18z m3464 2 c0 -25 -16 -24 -18 1 -1 15
2 22 8 19 6 -3 10 -12 10 -20z m-5210 -4 c0 -11 -19 -34 -42 -52 -24 -18 -53
-43 -66 -56 -27 -27 -40 -29 -49 -6 -5 12 11 33 56 75 63 59 101 74 101 39z
m1128 -37 c22 -14 52 -69 52 -94 0 -17 -40 -11 -46 8 -19 58 -45 78 -97 74
-34 -2 -82 -76 -85 -133 -4 -66 66 -117 106 -77 10 10 16 8 29 -5 9 -9 13 -20
9 -24 -4 -4 -11 -1 -15 6 -6 9 -11 10 -15 2 -4 -6 -5 -15 -2 -20 10 -16 -30
-19 -69 -5 -41 14 -81 54 -91 93 -15 55 44 167 101 192 26 11 94 2 123 -17z
m2629 -5 c34 -22 80 -99 69 -118 -4 -5 -2 -12 2 -15 11 -7 8 -47 -7 -73 -9
-18 -120 -83 -140 -83 -11 0 -118 189 -126 222 -6 23 -1 28 52 56 70 36 104
39 150 11z m1057 -46 c8 -16 36 -50 62 -78 26 -27 51 -62 56 -77 6 -16 14 -28
20 -28 6 0 7 8 3 18 -5 14 -4 15 6 4 11 -10 10 -16 -5 -30 -16 -16 -21 -13
-91 63 -40 44 -76 77 -80 74 -3 -4 6 -29 20 -57 14 -27 25 -54 25 -59 0 -5 9
-26 20 -48 15 -29 17 -42 9 -52 -6 -7 -15 -13 -19 -13 -4 0 -51 30 -104 66
-53 36 -96 59 -96 52 0 -7 11 -22 23 -33 50 -43 90 -97 93 -125 4 -33 -1 -37
-19 -17 -79 84 -167 187 -167 194 0 18 52 59 57 46 3 -7 11 -13 19 -13 8 0 14
-4 14 -10 0 -5 6 -10 13 -10 7 0 22 -8 33 -17 11 -10 35 -26 52 -35 42 -22 42
-10 2 84 -35 82 -35 85 -13 110 23 26 50 22 67 -9z m-4719 -35 c4 -14 21 -29
44 -39 29 -13 39 -23 44 -48 5 -24 12 -31 31 -31 27 0 39 -12 54 -58 10 -30 8
-36 -36 -95 -26 -34 -54 -62 -62 -62 -27 0 -22 39 8 70 55 57 67 100 30 114
-28 10 -40 5 -99 -48 -38 -33 -48 -38 -53 -25 -6 15 38 84 54 84 4 0 13 14 20
30 10 24 10 33 0 45 -22 26 -50 16 -106 -37 -50 -47 -56 -50 -71 -35 -15 14
-11 21 45 78 34 34 62 66 62 70 0 19 30 7 35 -13z m1379 -93 c3 -9 0 -12 -9
-9 -8 3 -12 -1 -12 -11 2 -11 -29 -33 -97 -69 -55 -28 -101 -57 -103 -63 -2
-6 23 -24 56 -39 34 -15 61 -32 61 -40 0 -7 6 -15 13 -17 7 -3 5 -6 -5 -6 -18
-1 -162 62 -184 80 -19 15 -6 44 29 63 82 43 168 93 179 104 8 8 -3 17 -46 36
-50 22 -67 42 -50 58 8 9 162 -71 168 -87z m2011 38 c4 -27 10 -92 14 -145 l6
-97 -25 -4 c-26 -5 -38 6 -65 58 -20 40 -95 114 -96 95 0 -8 0 -44 1 -78 1
-51 -2 -67 -17 -78 -16 -12 -16 -15 -3 -24 13 -9 13 -11 0 -20 -8 -5 -18 -10
-21 -10 -14 0 -159 190 -159 208 0 21 29 20 48 -1 30 -33 92 -125 92 -137 0
-5 5 -10 12 -10 8 0 9 30 5 108 l-6 108 27 10 c25 9 30 6 75 -56 70 -97 76
-104 82 -99 2 3 0 47 -6 98 -11 99 -8 121 15 121 9 0 16 -17 21 -47z m-818 31
c-3 -3 -12 -4 -19 -1 -8 3 -5 6 6 6 11 1 17 -2 13 -5z m-955 -120 c21 -3 35
-10 33 -15 -3 -4 -12 -6 -20 -2 -8 3 -15 0 -15 -5 0 -7 -11 -8 -32 -1 -57 16
-69 5 -85 -81 -2 -13 -8 -27 -14 -30 -12 -8 -18 -71 -7 -92 5 -10 15 -18 23
-18 8 0 15 -7 15 -15 0 -20 -21 -19 -60 3 -29 15 -31 20 -26 56 2 21 9 42 15
45 5 4 9 16 9 26 -2 17 11 78 28 133 4 13 44 12 136 -4z m2778 -46 c0 -16 -15
-33 -51 -58 -28 -18 -53 -38 -55 -42 -3 -5 5 -22 17 -39 18 -26 24 -29 33 -18
20 26 106 80 116 74 21 -13 9 -35 -36 -64 -25 -17 -49 -31 -55 -31 -5 0 -9 -5
-9 -11 0 -18 41 -79 53 -79 5 0 34 13 63 30 31 17 56 26 59 20 11 -17 27 -11
20 8 -5 13 -3 14 6 5 17 -17 4 -30 -64 -64 -34 -17 -69 -37 -78 -45 -8 -8 -18
-14 -21 -14 -6 0 -111 143 -133 180 -6 10 -17 25 -24 34 -8 9 -12 19 -9 22 17
17 153 114 160 114 4 0 8 -10 8 -22z m-2566 -38 c0 -19 -2 -50 -5 -69 l-4 -35
50 -3 c56 -3 69 2 79 34 9 28 -24 63 -59 63 -14 0 -29 8 -35 20 -10 18 -8 20
20 20 17 0 46 -6 65 -14 44 -19 61 -71 40 -122 -19 -46 -67 -56 -137 -29 -19
8 -21 5 -38 -62 -10 -40 -31 -56 -45 -34 -3 5 2 49 11 98 9 48 19 107 21 131
4 33 9 42 22 40 11 -3 16 -14 15 -38z m896 -10 c16 -16 30 -37 29 -47 0 -14
-2 -13 -9 5 -14 33 -23 27 -17 -13 3 -20 1 -37 -5 -41 -6 -4 3 -12 19 -19 26
-11 29 -17 26 -46 -8 -66 -14 -79 -44 -94 -28 -15 -33 -15 -67 2 -20 10 -38
26 -40 36 -4 21 21 23 38 2 27 -32 80 -3 80 45 0 32 -17 50 -47 50 -28 0 -31
26 -3 35 12 4 20 15 20 29 0 26 -13 40 -48 51 -19 5 -25 2 -29 -14 -3 -12 -13
-21 -24 -21 -26 0 -24 16 6 45 34 35 76 33 115 -5z m-245 -11 c0 -21 -5 -24
-46 -27 -42 -3 -47 -6 -53 -30 -3 -15 -15 -38 -26 -52 l-20 -25 1 25 c0 14 4
45 7 70 l7 45 55 11 c69 14 75 13 75 -17z m-916 -15 c10 7 45 -23 37 -31 -10
-10 -74 8 -87 24 -10 12 -10 15 -1 9 7 -4 12 -2 12 5 0 9 4 9 15 -1 8 -6 18
-9 24 -6z m81 -18 c0 -24 -17 -28 -23 -6 -3 13 0 20 9 20 8 0 14 -6 14 -14z
m834 -88 c14 -18 21 -34 16 -36 -6 -2 -10 -19 -10 -38 0 -24 -4 -33 -12 -28
-8 5 -9 2 -5 -9 10 -25 -35 -51 -75 -43 -35 7 -68 32 -68 53 0 17 10 16 34 -2
24 -18 68 -19 84 -3 28 28 3 108 -35 108 -14 0 -17 12 -6 23 16 17 53 5 77
-25z m1658 -27 c20 -18 25 -56 13 -85 -7 -16 -5 -18 13 -13 29 7 49 -14 58
-58 7 -41 -18 -90 -42 -81 -8 3 -14 1 -14 -4 0 -6 -17 -18 -37 -28 -21 -9 -43
-23 -49 -31 -9 -11 -17 -6 -41 30 -16 24 -38 62 -48 84 -10 22 -26 52 -36 67
-32 45 -25 60 54 105 75 44 96 46 129 14z m-3552 15 c0 -3 -4 -8 -10 -11 -5
-3 -10 -1 -10 4 0 6 5 11 10 11 6 0 10 -2 10 -4z m97 -20 c18 -9 37 -25 42
-35 15 -27 23 -81 12 -81 -20 0 -41 13 -41 25 0 28 -42 65 -82 72 -35 5 -39 8
-25 18 9 7 14 15 10 18 -12 13 52 0 84 -17z m902 -21 c2 -13 -1 -16 -14 -11
-9 3 -22 6 -29 6 -6 0 -12 8 -12 19 0 15 5 17 26 11 14 -3 27 -15 29 -25z
m-1373 0 c-1 -27 -4 -29 -24 -17 -15 10 -5 42 13 42 7 0 12 -11 11 -25z m339
-6 c0 -13 -5 -23 -10 -22 -6 1 -12 -6 -13 -15 -1 -9 -4 -42 -8 -72 -5 -48 -3
-57 15 -74 12 -11 21 -26 21 -34 0 -12 3 -12 15 -2 12 10 21 10 40 2 36 -17
32 -36 -6 -28 -17 3 -37 6 -44 6 -20 0 -76 60 -92 98 -17 41 -4 97 34 142 29
35 48 35 48 -1z m1065 6 c0 -8 -2 -15 -4 -15 -2 0 -6 7 -10 15 -3 8 -1 15 4
15 6 0 10 -7 10 -15z m-673 -129 c77 -32 96 -39 108 -40 15 -1 18 -36 3 -36
-17 1 -116 35 -125 43 -10 11 -23 -3 -38 -40 -8 -19 -15 -37 -15 -38 0 -1 18
-5 40 -9 24 -4 45 -14 52 -26 7 -11 16 -20 21 -20 4 0 5 5 2 10 -3 6 -2 10 4
10 5 0 9 -9 8 -20 -2 -26 -12 -25 -75 5 -29 14 -54 25 -57 25 -10 0 -46 -83
-38 -90 4 -3 30 -15 56 -24 27 -10 51 -24 54 -31 2 -8 11 -11 19 -8 16 6 19
-12 4 -22 -10 -6 -70 21 -70 33 0 4 -10 8 -22 9 -39 2 -98 27 -98 41 0 7 13
42 30 77 16 35 39 89 51 119 11 31 22 56 24 56 2 0 30 -11 62 -24z m-296 4
c10 -6 19 -17 19 -25 0 -8 4 -15 9 -15 18 0 21 -34 4 -59 -10 -15 -18 -21 -21
-13 -2 6 -10 12 -18 12 -11 0 -11 5 -2 25 10 22 9 28 -10 41 -23 16 -30 44
-11 44 6 0 19 -5 30 -10z m3983 -96 c8 -40 -8 -71 -29 -54 -9 7 -15 -1 -25
-30 -15 -45 -48 -82 -38 -43 4 13 3 25 -2 28 -4 3 -11 -7 -14 -21 -9 -34 -30
-56 -43 -43 -6 6 -17 2 -31 -11 -11 -11 -26 -20 -31 -20 -6 0 -23 -13 -38 -28
-40 -40 -83 -66 -83 -50 0 8 -3 9 -8 3 -12 -17 -52 -36 -62 -30 -6 4 -10 17
-10 31 0 16 -4 23 -11 18 -7 -4 -8 -20 -4 -42 6 -32 5 -34 -9 -23 -13 11 -16
11 -16 -3 0 -19 -11 -21 -28 -4 -9 9 -12 9 -12 1 0 -7 5 -15 10 -18 6 -4 8
-11 5 -16 -9 -13 -43 -11 -48 4 -6 17 -16 6 -20 -23 -2 -13 -12 -27 -23 -31
-27 -11 -36 -10 -29 1 3 6 0 10 -9 10 -8 0 -16 -6 -19 -12 -3 -8 -8 -4 -14 10
-8 21 -10 22 -22 8 -11 -13 -11 -19 -1 -31 7 -9 10 -18 7 -22 -4 -3 -9 2 -13
11 -3 9 -13 16 -21 16 -9 0 -13 -6 -10 -14 4 -10 1 -13 -8 -9 -8 3 -18 -2 -21
-11 -3 -9 -13 -16 -21 -16 -10 0 -13 6 -9 16 5 14 4 15 -9 4 -8 -7 -15 -21
-15 -31 0 -21 -20 -27 -20 -6 -1 7 -7 4 -15 -7 -8 -11 -21 -16 -30 -12 -9 3
-24 -3 -35 -14 -11 -11 -25 -20 -31 -20 -6 0 -18 -7 -26 -16 -9 -8 -24 -13
-34 -11 -11 3 -22 1 -25 -4 -8 -14 -24 -10 -24 6 0 20 -6 19 -30 -5 -15 -15
-28 -19 -48 -14 -20 4 -23 3 -12 -5 18 -13 16 -14 -50 -34 -58 -18 -98 -24
-167 -26 -28 -1 -51 -9 -70 -24 -33 -29 -123 -47 -230 -47 -12 0 -25 -5 -28
-10 -9 -14 -52 -12 -61 2 -4 7 -8 38 -9 70 0 67 -2 66 103 72 39 3 80 10 92
16 12 6 28 9 36 6 8 -3 14 -2 14 3 0 12 71 20 91 10 10 -5 31 1 60 18 43 25
85 39 141 48 15 2 37 9 48 15 12 6 44 14 71 16 32 3 59 12 72 25 12 11 28 17
36 14 7 -3 22 2 32 11 12 11 27 14 44 10 18 -5 27 -2 31 8 9 24 91 51 108 37
12 -10 14 -9 9 7 -4 15 6 23 49 40 29 12 72 26 96 32 23 6 42 15 42 20 0 6 11
10 25 10 13 0 35 11 49 25 31 31 56 33 56 3 0 -27 5 -21 14 17 5 22 4 26 -4
15 -7 -10 -10 -11 -10 -2 0 19 61 52 98 52 17 0 32 4 32 8 0 5 6 17 14 27 12
16 16 17 30 6 14 -12 16 -11 16 8 0 12 8 24 18 27 34 12 81 38 77 44 -7 12 42
32 61 26 11 -3 26 -1 34 4 27 17 38 11 44 -26z m-1054 -26 c38 -52 42 -57 93
-113 26 -28 47 -62 47 -73 0 -27 -4 -27 -39 -1 -25 18 -33 19 -67 10 -51 -14
-54 -14 -54 5 0 8 14 20 30 25 17 6 30 14 30 18 0 4 -14 26 -30 49 -51 68 -73
37 -50 -66 8 -34 7 -46 -4 -58 -11 -11 -13 -21 -6 -39 6 -17 5 -27 -6 -36 -8
-6 -18 -9 -21 -5 -4 4 -7 72 -6 153 1 150 4 162 44 163 8 0 26 -15 39 -32z
m-2371 12 c10 -5 21 -24 25 -42 11 -63 51 -178 60 -175 10 3 55 132 56 160 0
21 28 23 36 2 3 -8 -11 -65 -31 -127 -20 -62 -38 -118 -40 -125 -7 -21 -45 -2
-51 26 -18 74 -58 181 -68 178 -6 -2 -22 -38 -35 -80 -21 -71 -40 -93 -55 -68
-3 5 8 50 24 101 17 52 30 97 30 101 0 14 19 59 25 59 4 0 14 -4 24 -10z
m2108 -70 c-1 -15 -13 -22 -54 -30 -46 -10 -53 -15 -53 -35 0 -13 4 -35 10
-49 9 -24 10 -24 39 -10 40 20 83 22 89 5 3 -8 0 -11 -7 -7 -6 4 -18 0 -26 -8
-9 -8 -31 -18 -50 -22 -40 -7 -39 -3 -20 -74 11 -42 12 -56 2 -62 -6 -4 -14
-4 -17 0 -16 20 -57 178 -62 236 l-3 39 60 17 c82 24 94 24 92 0z m1308 0 c-3
-5 -10 -10 -16 -10 -5 0 -9 5 -9 10 0 6 7 10 16 10 8 0 12 -4 9 -10z m-2305
-40 c12 -8 12 -10 1 -10 -8 0 -20 -8 -27 -17 -17 -25 -28 -10 -12 16 15 24 17
24 38 11z m713 -19 c6 -25 -56 -46 -113 -37 l-40 6 6 -62 c3 -35 7 -64 8 -66
2 -1 13 7 26 18 13 11 33 20 46 20 12 0 34 4 47 9 19 8 27 6 31 -4 3 -8 1 -17
-4 -20 -6 -4 -10 -1 -10 4 0 6 -4 11 -10 11 -5 0 -10 -6 -10 -14 0 -9 -16 -15
-46 -19 -25 -2 -49 -9 -54 -13 -4 -5 -5 -29 -1 -54 5 -38 10 -44 26 -42 79 13
115 13 115 0 0 -11 2 -10 9 1 6 10 10 10 16 1 10 -16 4 -19 -41 -24 -21 -2
-64 -7 -95 -11 l-57 -7 -11 73 c-7 41 -18 102 -26 137 -12 55 -11 64 2 69 12
5 156 39 174 42 4 1 9 -7 12 -18z m-328 -50 c6 -1 12 -13 13 -28 1 -19 -1 -24
-7 -14 -6 9 -11 10 -15 2 -4 -6 -4 -15 -1 -21 3 -5 -1 -10 -10 -10 -9 0 -13
-4 -10 -10 7 -12 -9 -44 -36 -71 -10 -10 -19 -26 -19 -34 0 -9 -7 -27 -16 -40
-15 -23 -15 -25 0 -31 22 -8 20 -34 -1 -34 -10 0 -28 -3 -40 -6 -19 -5 -23 -2
-23 19 0 25 79 165 105 187 8 7 15 21 15 31 0 15 -10 19 -62 21 -34 2 -63 8
-65 14 -4 13 94 32 137 28 14 -1 30 -3 35 -3z m-667 -30 c3 -18 0 -22 -12 -18
-9 4 -16 2 -16 -3 0 -6 5 -10 11 -10 15 0 -2 -124 -24 -170 -16 -34 -26 -40
-68 -40 -42 0 -89 32 -89 61 0 25 30 25 37 -1 6 -24 49 -37 72 -23 17 11 34
78 46 176 5 47 10 58 23 55 9 -2 19 -14 20 -27z m304 -8 c12 -10 18 -12 14 -5
-12 20 8 13 32 -12 25 -27 30 -66 7 -66 -8 0 -15 5 -15 12 0 6 -10 22 -22 35
-48 51 -158 15 -158 -52 0 -14 -5 -25 -10 -25 -13 0 14 -67 37 -92 18 -20 82
-25 113 -8 10 5 26 33 36 62 10 30 19 46 22 38 3 -8 9 -18 15 -21 16 -11 -11
-74 -43 -98 -43 -31 -83 -36 -134 -17 -32 12 -48 26 -59 49 -39 84 -29 147 31
198 31 25 43 30 75 26 21 -3 48 -14 59 -24z m-1397 -133 c3 -6 -1 -7 -9 -4
-18 7 -21 14 -7 14 6 0 13 -4 16 -10z m1805 -100 c0 -17 -7 -20 -45 -21 -25
-1 -50 -2 -57 -3 -6 -1 -13 5 -16 12 -5 15 25 26 78 29 34 2 40 0 40 -17z
m-1231 -110 c47 -8 56 -7 67 8 13 16 13 16 14 -2 0 -15 5 -17 26 -12 16 4 23
3 20 -3 -4 -6 7 -8 29 -4 31 5 35 3 35 -15 0 -11 5 -24 11 -27 17 -11 22 1 9
24 -9 17 -8 21 5 21 8 0 15 -4 15 -10 0 -5 9 -10 19 -10 11 0 32 -11 46 -25
25 -22 29 -23 49 -10 13 8 26 12 29 8 4 -3 7 1 7 10 0 10 4 17 10 17 5 0 7 -7
3 -16 -4 -11 -1 -15 13 -13 10 1 39 -3 63 -10 23 -7 49 -10 57 -7 7 3 16 1 19
-5 4 -5 15 1 25 13 15 19 21 21 31 11 11 -11 9 -13 -6 -13 -15 0 -17 -2 -6
-12 8 -9 43 -13 98 -13 78 0 87 -2 100 -22 20 -30 31 -29 65 4 15 15 28 22 28
17 0 -6 31 -11 70 -12 49 -2 70 1 70 10 0 9 3 9 12 0 17 -17 23 -15 37 14 11
26 12 26 31 9 13 -11 20 -14 20 -6 0 7 5 9 10 6 6 -3 10 -1 10 6 0 10 3 10 12
1 10 -10 10 -17 0 -32 -8 -13 -8 -20 -2 -20 6 0 14 11 19 23 7 19 17 24 47 25
21 1 42 -4 47 -11 7 -9 10 -9 14 1 2 6 11 12 19 12 8 0 14 5 14 10 0 6 9 10
21 10 11 0 17 -4 14 -10 -3 -5 -2 -10 2 -10 5 0 9 -20 9 -45 1 -24 -3 -42 -7
-39 -4 2 -12 -3 -17 -12 -7 -12 -21 -15 -60 -13 -27 2 -48 0 -45 -5 3 -5 0 -7
-8 -4 -8 2 -15 19 -17 36 -2 18 -8 32 -13 32 -7 0 -8 -12 -4 -31 6 -28 5 -30
-15 -24 -17 5 -23 2 -27 -14 -3 -12 -8 -21 -12 -22 -41 -6 -129 -5 -142 2 -11
6 -19 5 -21 -2 -3 -8 -20 -8 -58 -1 -40 8 -57 7 -62 -1 -5 -8 -44 -13 -102
-15 -83 -2 -95 0 -100 15 -5 15 -17 18 -63 18 -32 0 -64 4 -70 9 -7 4 -13 5
-13 2 0 -4 -6 -4 -12 1 -7 4 -29 8 -48 8 -19 1 -50 8 -67 17 -18 9 -33 13 -33
8 0 -17 -42 -17 -161 1 -118 17 -275 52 -286 63 -3 3 0 19 6 35 10 23 10 34 1
51 -12 22 -11 22 16 16 16 -3 53 -10 83 -16z m491 -50 c0 -5 -5 -10 -11 -10
-5 0 -7 5 -4 10 3 6 8 10 11 10 2 0 4 -4 4 -10z m520 -40 c0 -5 -4 -10 -10
-10 -5 0 -10 5 -10 10 0 6 5 10 10 10 6 0 10 -4 10 -10z m773 3 c-7 -2 -19 -2
-25 0 -7 3 -2 5 12 5 14 0 19 -2 13 -5z m-596 -119 c-3 -3 -12 -4 -19 -1 -8 3
-5 6 6 6 11 1 17 -2 13 -5z"/>
<path d="M3260 5320 c0 -5 5 -10 10 -10 6 0 10 5 10 10 0 6 -4 10 -10 10 -5 0
-10 -4 -10 -10z"/>
<path d="M1090 5170 c0 -5 5 -10 10 -10 6 0 10 5 10 10 0 6 -4 10 -10 10 -5 0
-10 -4 -10 -10z"/>
<path d="M3245 5161 c-9 -15 8 -35 24 -30 8 3 7 10 -2 23 -10 14 -16 16 -22 7z"/>
<path d="M3465 5370 c3 -5 8 -10 11 -10 2 0 4 5 4 10 0 6 -5 10 -11 10 -5 0
-7 -4 -4 -10z"/>
<path d="M3530 5245 c0 -8 5 -15 10 -15 6 0 10 7 10 15 0 8 -4 15 -10 15 -5 0
-10 -7 -10 -15z"/>
<path d="M3701 5364 c0 -11 3 -14 6 -6 3 7 2 16 -1 19 -3 4 -6 -2 -5 -13z"/>
<path d="M3756 5244 c-14 -35 -4 -104 15 -104 5 0 9 27 9 60 0 57 -11 78 -24
44z"/>
<path d="M4050 5163 c0 -5 5 -15 10 -23 8 -12 10 -11 10 8 0 12 -4 22 -10 22
-5 0 -10 -3 -10 -7z"/>
<path d="M2191 4996 c-7 -8 -27 -18 -44 -21 -59 -12 -67 -16 -82 -45 -23 -44
-18 -70 26 -135 22 -33 43 -72 46 -87 3 -16 9 -28 14 -28 4 0 13 -18 19 -39 7
-28 17 -41 31 -43 14 -2 37 -29 68 -81 60 -99 63 -102 90 -85 18 11 21 22 21
80 0 37 -4 89 -10 115 -5 26 -11 108 -14 181 -5 154 -12 167 -82 178 -24 3
-47 10 -50 15 -8 13 -20 11 -33 -5z"/>
<path d="M2470 4990 c0 -8 -8 -10 -23 -6 -35 8 -47 -24 -49 -129 -1 -98 18
-383 27 -407 4 -9 18 -15 33 -14 20 1 31 9 43 32 13 27 43 79 87 149 7 11 17
31 23 45 30 66 64 136 69 140 3 3 13 17 23 32 16 26 16 31 2 64 -24 57 -62 87
-115 89 -25 2 -62 6 -82 10 -27 5 -38 4 -38 -5z"/>
<path d="M2772 4872 c-13 -2 -27 -14 -33 -29 -5 -13 -16 -31 -24 -39 -8 -9
-15 -24 -15 -35 0 -11 -16 -50 -35 -86 -19 -36 -35 -71 -35 -76 0 -18 -31 -46
-45 -41 -9 4 -11 -2 -8 -19 5 -23 -30 -105 -49 -118 -14 -9 0 -33 30 -49 26
-15 28 -15 58 15 17 16 37 35 45 40 22 16 133 82 144 86 6 2 53 31 104 64 l92
60 -6 45 c-4 25 -7 50 -8 57 0 7 -4 10 -9 7 -4 -3 -13 6 -20 20 -6 14 -16 26
-21 26 -6 0 -24 11 -42 24 -41 32 -94 52 -123 48z"/>
<path d="M2979 4577 c-71 -44 -104 -66 -118 -79 -8 -7 -36 -20 -63 -29 -49
-16 -79 -35 -131 -81 -30 -26 -41 -32 -59 -29 -14 2 -8 -32 13 -75 16 -33 18
-47 10 -63 -17 -31 -13 -71 7 -77 28 -9 116 -56 133 -70 8 -8 22 -14 31 -14 8
0 25 -9 38 -20 13 -11 27 -20 31 -20 19 0 100 -57 105 -74 5 -15 8 -16 15 -5
7 11 9 10 9 -3 0 -10 -6 -18 -12 -18 -14 0 -145 65 -168 84 -8 6 -63 36 -123
65 -90 45 -110 51 -123 40 -30 -25 -34 -45 -14 -66 21 -23 110 -152 110 -160
0 -2 9 -16 20 -30 11 -14 20 -34 20 -43 0 -10 7 -20 15 -24 8 -3 15 -12 15
-21 0 -8 4 -15 9 -15 5 0 26 -27 46 -60 37 -61 48 -66 87 -33 9 8 25 13 35 12
25 -5 43 9 37 26 -4 9 2 18 12 22 50 18 85 104 65 159 -16 45 -15 47 30 40 26
-4 38 -3 34 4 -3 5 -1 10 4 10 6 0 11 9 11 20 0 11 6 20 13 20 18 0 51 157 42
198 -10 50 -39 67 -109 67 -33 0 -67 4 -73 8 -7 5 -13 4 -13 -1 0 -8 -159 -16
-264 -13 -38 1 -60 16 -50 33 3 4 19 8 37 7 82 -1 257 7 257 12 0 3 15 3 33 1
70 -8 152 -1 163 14 22 28 14 124 -14 193 -40 95 -92 125 -153 88z"/>
<path d="M1709 4534 c-30 -32 -51 -161 -34 -209 15 -44 43 -85 59 -85 17 0 41
-28 32 -37 -4 -4 -16 -2 -27 5 -18 11 -21 9 -35 -24 -13 -31 -14 -48 -5 -100
7 -35 9 -75 5 -89 -4 -15 -2 -25 5 -25 6 0 8 7 5 15 -13 34 5 12 25 -30 26
-55 56 -72 100 -57 25 9 31 8 31 -4 0 -7 -4 -14 -10 -14 -13 0 -13 -81 0 -116
6 -15 30 -48 52 -73 38 -41 40 -45 22 -52 -15 -6 -13 -8 12 -8 17 -1 39 -10
49 -21 24 -26 31 -25 64 8 23 23 161 259 161 275 0 3 10 22 22 43 20 33 23 35
34 19 14 -18 9 -39 -6 -30 -4 3 -6 -3 -3 -14 3 -11 -23 -72 -66 -154 -39 -74
-71 -146 -71 -160 0 -17 13 -39 37 -62 36 -35 60 -46 48 -22 -4 6 2 2 12 -10
13 -16 22 -20 32 -13 10 5 22 3 35 -6 31 -22 61 -17 96 16 36 34 35 25 24 200
-5 74 -9 176 -9 227 0 76 -3 93 -18 102 -22 14 -48 2 -71 -34 -14 -22 -19 -23
-30 -12 -11 11 -12 22 -3 56 13 48 0 65 -40 56 -26 -6 -53 3 -53 18 0 6 10 21
22 34 20 22 21 25 6 40 -11 10 -35 17 -65 17 -26 1 -54 5 -62 10 -10 6 -16 5
-19 -2 -2 -7 -25 -12 -57 -12 -45 0 -53 3 -50 18 2 13 11 17 44 15 22 -1 41 2
41 6 0 4 33 7 73 7 82 -1 97 6 97 44 0 32 -11 43 -63 60 -21 6 -41 18 -44 26
-3 8 -13 14 -22 14 -9 1 -47 21 -86 45 -38 25 -87 52 -107 61 -22 9 -35 21
-32 29 7 16 -19 26 -82 31 -44 3 -54 0 -75 -22z m180 -301 c6 -11 10 -12 15
-4 12 19 48 13 44 -6 -3 -15 -16 -18 -82 -21 -80 -3 -107 8 -86 34 15 17 98
15 109 -3z m311 -156 c0 -5 -8 -6 -17 -3 -10 4 -14 4 -10 0 8 -8 -107 -76
-135 -81 -23 -4 -33 14 -18 32 7 8 36 26 66 41 29 14 58 32 65 40 10 13 14 12
30 -2 11 -10 19 -21 19 -27z m-210 -87 c0 -5 -4 -10 -10 -10 -5 0 -10 5 -10
10 0 6 5 10 10 10 6 0 10 -4 10 -10z m-62 -52 c7 -10 4 -18 -13 -30 -21 -16
-24 -16 -29 -1 -6 15 9 43 24 43 4 0 12 -6 18 -12z"/>
<path d="M3230 4254 c0 -8 5 -12 10 -9 6 4 8 11 5 16 -9 14 -15 11 -15 -7z"/>
<path d="M3170 3919 c0 -5 5 -7 10 -4 6 3 10 8 10 11 0 2 -4 4 -10 4 -5 0 -10
-5 -10 -11z"/>
<path d="M3091 3784 c0 -11 3 -14 6 -6 3 7 2 16 -1 19 -3 4 -6 -2 -5 -13z"/>
<path d="M3830 4739 c0 -5 5 -7 10 -4 6 3 10 8 10 11 0 2 -4 4 -10 4 -5 0 -10
-5 -10 -11z"/>
<path d="M3580 4566 c0 -9 7 -16 16 -16 9 0 14 5 12 12 -6 18 -28 21 -28 4z"/>
<path d="M3600 4520 c0 -5 5 -10 10 -10 6 0 10 5 10 10 0 6 -4 10 -10 10 -5 0
-10 -4 -10 -10z"/>
<path d="M3660 4510 c0 -5 5 -10 10 -10 6 0 10 5 10 10 0 6 -4 10 -10 10 -5 0
-10 -4 -10 -10z"/>
<path d="M3575 4360 c3 -5 10 -10 16 -10 5 0 9 5 9 10 0 6 -7 10 -16 10 -8 0
-12 -4 -9 -10z"/>
<path d="M3571 4314 c0 -11 3 -14 6 -6 3 7 2 16 -1 19 -3 4 -6 -2 -5 -13z"/>
<path d="M3570 4200 c0 -5 5 -10 10 -10 6 0 10 5 10 10 0 6 -4 10 -10 10 -5 0
-10 -4 -10 -10z"/>
<path d="M3646 4115 c4 -8 8 -15 10 -15 2 0 4 7 4 15 0 8 -4 15 -10 15 -5 0
-7 -7 -4 -15z"/>
<path d="M3938 4053 c7 -3 16 -2 19 1 4 3 -2 6 -13 5 -11 0 -14 -3 -6 -6z"/>
<path d="M4518 3949 c-50 -26 -50 -56 -3 -98 36 -31 89 -45 67 -18 -9 10 -6
17 8 30 27 23 26 72 -2 91 -27 19 -25 20 -70 -5z"/>
<path d="M4670 3873 c0 -13 5 -23 10 -23 13 0 13 11 0 30 -8 12 -10 11 -10 -7z"/>
<path d="M4468 3793 c6 -2 18 -2 25 0 6 3 1 5 -13 5 -14 0 -19 -2 -12 -5z"/>
<path d="M4925 3780 c-9 -15 14 -50 32 -50 13 0 14 3 5 12 -7 7 -12 20 -12 30
0 19 -15 24 -25 8z"/>
<path d="M4560 3750 c0 -5 5 -10 10 -10 6 0 10 5 10 10 0 6 -4 10 -10 10 -5 0
-10 -4 -10 -10z"/>
<path d="M6894 4018 c-1 -13 -5 -34 -10 -48 -7 -23 -6 -24 8 -9 15 15 22 38
19 67 -2 21 -16 13 -17 -10z"/>
<path d="M6935 4000 c-3 -5 -1 -10 4 -10 6 0 11 5 11 10 0 6 -2 10 -4 10 -3 0
-8 -4 -11 -10z"/>
<path d="M6925 3933 c-4 -26 -9 -56 -12 -65 -2 -10 0 -18 5 -18 11 0 28 118
19 127 -3 2 -8 -17 -12 -44z"/>
<path d="M6916 3787 c3 -10 9 -15 12 -12 3 3 0 11 -7 18 -10 9 -11 8 -5 -6z"/>
<path d="M6905 3720 c-4 -16 -4 -33 -1 -38 3 -5 1 -23 -4 -41 -5 -19 -5 -31 1
-31 9 0 10 6 14 93 3 54 -1 60 -10 17z"/>
<path d="M6865 3679 c-4 -6 -5 -12 -2 -15 2 -3 7 2 10 11 7 17 1 20 -8 4z"/>
<path d="M6795 3480 c-4 -12 -5 -24 -2 -27 3 -2 8 5 12 17 4 12 5 24 2 27 -3
2 -8 -5 -12 -17z"/>
<path d="M6840 3471 c0 -6 4 -13 10 -16 6 -3 7 1 4 9 -7 18 -14 21 -14 7z"/>
<path d="M6744 3395 c-3 -8 -4 -20 -2 -27 3 -7 7 -1 10 15 6 29 1 36 -8 12z"/>
<path d="M6730 3323 c0 -18 2 -33 4 -33 9 0 13 39 5 51 -6 10 -9 4 -9 -18z"/>
<path d="M6691 3304 c0 -11 3 -14 6 -6 3 7 2 16 -1 19 -3 4 -6 -2 -5 -13z"/>
<path d="M6635 3230 c-4 -17 -5 -34 -2 -36 2 -3 7 10 11 27 8 42 0 50 -9 9z"/>
<path d="M6528 3120 c-7 -24 -3 -38 8 -28 3 4 4 17 2 30 l-3 23 -7 -25z"/>
<path d="M6572 3095 c0 -16 2 -22 5 -12 2 9 2 23 0 30 -3 6 -5 -1 -5 -18z"/>
<path d="M6478 3060 c-20 -18 -24 -40 -8 -40 10 0 34 50 28 55 -2 1 -11 -5
-20 -15z"/>
<path d="M6521 3064 c0 -11 3 -14 6 -6 3 7 2 16 -1 19 -3 4 -6 -2 -5 -13z"/>
<path d="M6465 3000 c-3 -5 -1 -10 4 -10 6 0 11 5 11 10 0 6 -2 10 -4 10 -3 0
-8 -4 -11 -10z"/>
<path d="M6320 2885 c0 -9 6 -12 15 -9 8 4 12 10 9 15 -8 14 -24 10 -24 -6z"/>
<path d="M6396 2868 c-13 -42 -14 -60 -4 -50 6 6 12 23 14 37 3 26 -4 34 -10
13z"/>
<path d="M6300 2836 c0 -8 5 -18 10 -21 6 -3 10 3 10 14 0 12 -4 21 -10 21 -5
0 -10 -6 -10 -14z"/>
<path d="M6261 2804 c0 -11 3 -14 6 -6 3 7 2 16 -1 19 -3 4 -6 -2 -5 -13z"/>
<path d="M6145 2707 c-6 -7 -8 -25 -5 -42 6 -29 6 -29 14 -7 4 13 5 26 2 29
-3 4 -1 12 5 20 6 7 8 13 3 13 -5 -1 -14 -6 -19 -13z"/>
<path d="M1395 4000 c3 -5 8 -10 11 -10 2 0 4 5 4 10 0 6 -5 10 -11 10 -5 0
-7 -4 -4 -10z"/>
<path d="M508 3903 c7 -3 16 -2 19 1 4 3 -2 6 -13 5 -11 0 -14 -3 -6 -6z"/>
<path d="M192 3796 c7 -8 15 -12 17 -11 5 6 -10 25 -20 25 -5 0 -4 -6 3 -14z"/>
<path d="M225 3700 c-4 -12 -5 -24 -2 -27 3 -2 8 5 12 17 4 12 5 24 2 27 -3 2
-8 -5 -12 -17z"/>
<path d="M414 3444 c3 -9 6 -24 6 -35 0 -10 5 -19 10 -19 11 0 13 30 4 54 -3
9 -11 16 -16 16 -6 0 -7 -7 -4 -16z"/>
<path d="M1780 2170 c0 -5 5 -10 10 -10 6 0 10 5 10 10 0 6 -4 10 -10 10 -5 0
-10 -4 -10 -10z"/>
<path d="M3518 3173 c7 -3 16 -2 19 1 4 3 -2 6 -13 5 -11 0 -14 -3 -6 -6z"/>
<path d="M1705 3200 c-3 -5 -1 -10 4 -10 6 0 11 5 11 10 0 6 -2 10 -4 10 -3 0
-8 -4 -11 -10z"/>
<path d="M6070 3242 c0 -11 9 -29 20 -42 11 -13 20 -29 20 -37 0 -21 15 -15
30 12 7 14 17 25 22 25 21 0 4 22 -32 40 -49 25 -60 25 -60 2z"/>
<path d="M4715 3127 c-39 -14 -41 -17 -30 -25 6 -4 28 -41 49 -82 21 -41 42
-79 46 -83 4 -5 27 3 51 16 39 22 44 29 47 64 2 30 -4 48 -28 81 -27 37 -35
42 -68 41 -20 -1 -50 -6 -67 -12z"/>
<path d="M5910 2898 c0 -15 5 -30 10 -33 13 -8 13 25 0 45 -8 12 -10 9 -10
-12z"/>
<path d="M1160 3076 c0 -9 5 -16 10 -16 6 0 10 4 10 9 0 6 -4 13 -10 16 -5 3
-10 -1 -10 -9z"/>
<path d="M5208 2643 c-31 -19 -36 -48 -14 -78 13 -18 14 -18 42 2 16 11 37 23
47 26 13 5 17 15 15 34 -2 23 -8 28 -33 30 -16 2 -42 -5 -57 -14z"/>
<path d="M5281 2545 c-18 -8 -37 -12 -42 -9 -17 10 -9 -39 11 -71 l21 -33 44
25 c48 27 66 62 45 88 -15 19 -35 18 -79 0z"/>
<path d="M5555 2270 c3 -5 8 -10 11 -10 2 0 4 5 4 10 0 6 -5 10 -11 10 -5 0
-7 -4 -4 -10z"/>
<path d="M5470 2204 c0 -8 5 -12 10 -9 6 3 10 10 10 16 0 5 -4 9 -10 9 -5 0
-10 -7 -10 -16z"/>
<path d="M4840 1926 c0 -9 5 -16 10 -16 6 0 10 4 10 9 0 6 -4 13 -10 16 -5 3
-10 -1 -10 -9z"/>
<path d="M4360 2324 c0 -8 5 -12 10 -9 6 3 10 10 10 16 0 5 -4 9 -10 9 -5 0
-10 -7 -10 -16z"/>
<path d="M4003 1775 c-6 -6 -8 -18 -3 -24 5 -9 9 -5 13 10 7 28 6 31 -10 14z"/>
<path d="M2765 1760 c3 -5 10 -10 16 -10 5 0 9 5 9 10 0 6 -7 10 -16 10 -8 0
-12 -4 -9 -10z"/>
<path d="M3393 1748 c2 -7 7 -13 12 -13 5 0 10 6 13 13 2 6 -4 12 -13 12 -9 0
-15 -6 -12 -12z"/>
</g>
</svg>
